<svg height="11" viewBox="0 0 11 11" width="11" xmlns="http://www.w3.org/2000/svg"><path d="m3.5 0c-.5 0-.5.5-.5.5l-1 4.5v1c0 1.0244 1 1 1 1h5s1 0 1-1v-1l-1-4.5s0-.5-.5-.5zm.5 1h3l.5 3h-4zm-.5 4c.2761 0 .5.2239.5.5s-.2239.5-.5.5-.5-.2239-.5-.5.2239-.5.5-.5zm1.75 0h.5c.1385 0 .25.1115.25.25s-.1115.25-.25.25h-.5c-.1385 0-.25-.1115-.25-.25s.1115-.25.25-.25zm2.25 0c.2761 0 .5.2239.5.5s-.2239.5-.5.5-.5-.2239-.5-.5.2239-.5.5-.5zm-4.5 3-1 3h1.5l.334-1h3.332l.334 1h1.5l-1-3h-1.5l.334 1h-2.668l.334-1z"/></svg>